<?xml version="1.0" encoding="UTF-8"?>
<svg id="Capa_2" data-name="Capa 2" xmlns="http://www.w3.org/2000/svg" viewBox="0 0 304.44 40.61">
  <defs>
    <style>
      .cls-1 {
        fill: #000;
        stroke-width: 0px;
      }
    </style>
  </defs>
  <g id="Capa_1-2" data-name="Capa 1">
    <g>
      <path class="cls-1" d="M20.33,0h4.54,0s-2.03,4.06-2.03,4.06L6.57,36.55h16.65v4.06H0l.02-.05,2.01-4.01L18.3,4.07H1.67V0h18.66Z"/>
      <path class="cls-1" d="M46.14,0s.04,0,.06,0h.03c8.27.03,13.7,3.66,15.53,8.42,1.84,4.78-.22,10.39-5.33,13.13-4.2,2.25-9.53,2.14-14.03,3.09-2.25.47-4.24,1.16-5.76,2.25-1.24.89-2.23,2.03-2.91,3.77,1.61,1.97,3.7,3.57,6.16,4.62,7.08,3.01,15.24.57,19.55-5.85l3.37,2.27c-5.38,8-15.66,11.08-24.51,7.32-8.85-3.76-13.83-13.31-11.91-22.77C28.31,6.81,36.57,0,46.14,0h0ZM30.37,17.05c-.67,3.32-.29,6.64.94,9.58.84-1.23,1.84-2.24,2.96-3.04,2.21-1.59,4.76-2.4,7.29-2.93,5.07-1.07,10.25-1.24,12.94-2.69,3.57-1.91,4.58-5.17,3.46-8.09-1.12-2.92-4.65-5.81-11.79-5.82-7.66-.02-14.27,5.39-15.81,12.99Z"/>
      <path class="cls-1" d="M96.96,0c0,13.67-6.32,19.82-12.32,23.24-.61.35-1.22.67-1.81.98l14.13,16.37h-5.36l-12.51-14.49c-.84.43-1.6.85-2.26,1.27-1.93,1.25-2.84,2.24-2.99,4.25v8.97h-4.06V0h27.18ZM73.83,24.52c.25-.19.51-.37.78-.54,2.46-1.59,5.32-2.72,8.01-4.26,4.76-2.71,9.12-6.25,10.08-15.65h-18.87s0,20.45,0,20.45Z"/>
      <path class="cls-1" d="M139.55,20.31c0,11.18-9.04,20.3-20.15,20.3s-20.15-9.12-20.15-20.3S108.28,0,119.39,0s20.15,9.12,20.15,20.3ZM103.3,20.31c0,9,7.19,16.24,16.09,16.24s16.09-7.24,16.09-16.24-7.19-16.24-16.09-16.24-16.09,7.24-16.09,16.24Z"/>
      <path class="cls-1" d="M195.74,0v4.06h-11.6s0,36.54,0,36.54h-4.06V4.07h-11.6V0h27.25Z"/>
      <path class="cls-1" d="M205.55,0v40.6h-4.06V0h4.06Z"/>
      <path class="cls-1" d="M216.57,0v3.4C218.92,1.3,222.1,0,225.56,0c4.59,0,8.69,2.27,11.02,5.72C238.91,2.28,243.01,0,247.6,0c7.11,0,13.05,5.45,13.05,12.3v28.3h-4.06V12.31c0-4.5-3.93-8.24-8.99-8.24s-8.99,3.74-8.99,8.24h0v28.3h-4.06V12.31h0c0-4.5-3.93-8.24-8.99-8.24s-8.99,3.75-8.99,8.24v28.3h-4.06V0h4.06Z"/>
      <path class="cls-1" d="M287.76,0s.04,0,.06,0h.03c8.27.03,13.7,3.66,15.53,8.42,1.84,4.78-.22,10.39-5.33,13.13-4.2,2.25-9.53,2.14-14.03,3.09-2.25.47-4.24,1.16-5.76,2.25-1.24.89-2.23,2.03-2.91,3.77,1.61,1.97,3.7,3.57,6.16,4.62,7.08,3.01,15.24.57,19.55-5.85l3.37,2.27c-5.38,8-15.66,11.08-24.51,7.32-8.85-3.76-13.83-13.31-11.91-22.77C269.93,6.81,278.19,0,287.76,0h0ZM271.99,17.05c-.67,3.32-.29,6.64.94,9.58.84-1.23,1.84-2.24,2.96-3.04,2.21-1.59,4.76-2.4,7.29-2.93,5.07-1.07,10.25-1.24,12.94-2.69,3.57-1.91,4.58-5.17,3.46-8.09-1.12-2.92-4.65-5.81-11.79-5.82-7.66-.02-14.27,5.39-15.81,12.99Z"/>
    </g>
  </g>
</svg>